<?xml version="1.0" encoding="UTF-8" standalone="no"?><!DOCTYPE svg PUBLIC "-//W3C//DTD SVG 1.1//EN" "http://www.w3.org/Graphics/SVG/1.1/DTD/svg11.dtd"><svg width="100%" height="100%" viewBox="0 0 625 625" version="1.1" xmlns="http://www.w3.org/2000/svg" xmlns:xlink="http://www.w3.org/1999/xlink" xml:space="preserve" xmlns:serif="http://www.serif.com/" style="fill-rule:evenodd;clip-rule:evenodd;stroke-linejoin:round;stroke-miterlimit:2;"><rect id="Gery-logo----" serif:id="Gery logo &lt;/&gt;" x="-0" y="0" width="625" height="625" style="fill:none;"/><rect x="-0" y="0" width="625" height="625" style="fill:#2c2a29;"/><g id="Zn"><path d="M414.352,451.38l-0,-131.316l25.797,-0l53.745,87.693l-0,-87.693l24.633,-0l-0,131.316l-26.604,0l-52.938,-85.633l-0,85.633l-24.633,0Z" style="fill:url(#_Linear1);fill-rule:nonzero;"/><path d="M390.281,215.831l-129.271,206.94l128.913,-0l-3.754,28.609l-159.309,0l0,-26.892l130.165,-207.513l-117.291,0l-0,-28.227l150.547,-0l0,27.083Z" style="fill:url(#_Linear2);fill-rule:nonzero;"/><path d="M16.267,254.483l-0,-44.433l162.853,-92.003l-9.909,39.636l-136.483,74.848l97.775,79.987l-7.45,29.797l-106.786,-87.832Z" style="fill:url(#_Linear3);fill-rule:nonzero;"/><path d="M608.733,407.895l0,44.434l-150.4,63.568l0,-31.547l133.939,-54.503l-66.872,-68.116l0,-41.667l83.333,87.831Z" style="fill:url(#_Linear4);fill-rule:nonzero;"/><path d="M226.86,118.047l-41.667,-0l-83.333,333.333l41.667,0l83.333,-333.333Z"/></g><defs><linearGradient id="_Linear1" x1="0" y1="0" x2="1" y2="0" gradientUnits="userSpaceOnUse" gradientTransform="matrix(104.175,0,0,131.316,414.352,385.722)"><stop offset="0" style="stop-color:#ea004c;stop-opacity:1"/><stop offset="1" style="stop-color:#9841c0;stop-opacity:1"/></linearGradient><linearGradient id="_Linear2" x1="0" y1="0" x2="1" y2="0" gradientUnits="userSpaceOnUse" gradientTransform="matrix(163.421,0,0,262.633,226.86,320.064)"><stop offset="0" style="stop-color:#9841c0;stop-opacity:1"/><stop offset="1" style="stop-color:#ea004c;stop-opacity:1"/></linearGradient><linearGradient id="_Linear3" x1="0" y1="0" x2="1" y2="0" gradientUnits="userSpaceOnUse" gradientTransform="matrix(79.5205,0,0,262.633,16.2665,232.928)"><stop offset="0" style="stop-color:#3f48bc;stop-opacity:1"/><stop offset="1" style="stop-color:#9841c0;stop-opacity:1"/></linearGradient><linearGradient id="_Linear4" x1="0" y1="0" x2="1" y2="0" gradientUnits="userSpaceOnUse" gradientTransform="matrix(-79.5205,0,0,-262.633,608.733,429.451)"><stop offset="0" style="stop-color:#3f48bc;stop-opacity:1"/><stop offset="1" style="stop-color:#9841c0;stop-opacity:1"/></linearGradient></defs></svg>