<?xml version="1.0" encoding="UTF-8" standalone="no"?><!DOCTYPE svg PUBLIC "-//W3C//DTD SVG 1.1//EN" "http://www.w3.org/Graphics/SVG/1.1/DTD/svg11.dtd"><svg width="100%" height="100%" viewBox="0 0 1063 349" version="1.1" xmlns="http://www.w3.org/2000/svg" xmlns:xlink="http://www.w3.org/1999/xlink" xml:space="preserve" xmlns:serif="http://www.serif.com/" style="fill-rule:evenodd;clip-rule:evenodd;stroke-linejoin:round;stroke-miterlimit:2;"><rect id="Text-logo-grey" serif:id="Text logo grey" x="0" y="0" width="1062.72" height="348.611" viewBox="0 0 1062.72 348.611" style="fill:#2b2b29;" opacity="0"/><g><path d="M179.118,264.334c-2.4,0 -4.45,-0.85 -6.15,-2.55c-1.7,-1.7 -2.55,-3.75 -2.55,-6.15c0,-2.2 0.6,-4.05 1.8,-5.55l62.7,-77.4l-57.75,0c-1.8,0 -3.325,-0.625 -4.575,-1.875c-1.25,-1.25 -1.875,-2.775 -1.875,-4.575c0,-1.8 0.625,-3.35 1.875,-4.65c1.25,-1.3 2.775,-1.95 4.575,-1.95l65.1,0c2.8,0 5.025,0.9 6.675,2.7c1.65,1.8 2.475,4 2.475,6.6c0,1 -0.225,2.05 -0.675,3.15c-0.45,1.1 -1.025,2.05 -1.725,2.85l-61.95,76.65l58.8,0c1.8,0 3.325,0.625 4.575,1.875c1.25,1.25 1.875,2.775 1.875,4.575c0,1.8 -0.625,3.3 -1.875,4.5c-1.25,1.2 -2.775,1.8 -4.575,1.8l-66.75,0Z" style="fill-rule:nonzero;"/><path d="M280.368,265.084c-1.9,0 -3.5,-0.65 -4.8,-1.95c-1.3,-1.3 -1.95,-2.9 -1.95,-4.8l0,-92.55c0,-1.9 0.65,-3.525 1.95,-4.875c1.3,-1.35 2.9,-2.025 4.8,-2.025c1.9,0 3.525,0.675 4.875,2.025c1.35,1.35 2.025,2.975 2.025,4.875l0,92.55c0,1.9 -0.675,3.5 -2.025,4.8c-1.35,1.3 -2.975,1.95 -4.875,1.95Z" style="fill-rule:nonzero;"/><path d="M323.118,265.084c-1.9,0 -3.5,-0.65 -4.8,-1.95c-1.3,-1.3 -1.95,-2.9 -1.95,-4.8l0,-89.55c0,-2.7 0.95,-5.025 2.85,-6.975c1.9,-1.95 4.2,-2.925 6.9,-2.925l1.95,0c3.2,0 5.95,1.5 8.25,4.5l57.75,83.4l0,-81c0,-1.9 0.65,-3.525 1.95,-4.875c1.3,-1.35 2.9,-2.025 4.8,-2.025c1.9,0 3.525,0.675 4.875,2.025c1.35,1.35 2.025,2.975 2.025,4.875l0,89.55c0,2.7 -0.975,5 -2.925,6.9c-1.95,1.9 -4.275,2.85 -6.975,2.85l-1.8,0c-1.6,0 -3.1,-0.375 -4.5,-1.125c-1.4,-0.75 -2.55,-1.725 -3.45,-2.925l-58.05,-83.85l0,81.15c0,1.9 -0.675,3.5 -2.025,4.8c-1.35,1.3 -2.975,1.95 -4.875,1.95Z" style="fill-rule:nonzero;"/><path d="M483.018,265.834c-10,0 -18.975,-2.175 -26.925,-6.525c-7.95,-4.35 -14.2,-10.6 -18.75,-18.75c-4.55,-8.15 -6.825,-17.675 -6.825,-28.575c0,-10.9 2.275,-20.425 6.825,-28.575c4.55,-8.15 10.8,-14.4 18.75,-18.75c7.95,-4.35 16.925,-6.525 26.925,-6.525c6.8,0 12.875,0.8 18.225,2.4c5.35,1.6 10.675,3.9 15.975,6.9c2.2,1.2 3.3,3.1 3.3,5.7c0,1.5 -0.55,2.825 -1.65,3.975c-1.1,1.15 -2.55,1.725 -4.35,1.725c-1,0 -1.9,-0.2 -2.7,-0.6c-4.4,-2.3 -8.7,-4.05 -12.9,-5.25c-4.2,-1.2 -9.05,-1.8 -14.55,-1.8c-8.6,0 -15.925,1.775 -21.975,5.325c-6.05,3.55 -10.6,8.4 -13.65,14.55c-3.05,6.15 -4.575,13.125 -4.575,20.925c0,7.8 1.525,14.775 4.575,20.925c3.05,6.15 7.6,11 13.65,14.55c6.05,3.55 13.375,5.325 21.975,5.325c5.5,0 10.35,-0.6 14.55,-1.8c4.2,-1.2 8.5,-2.95 12.9,-5.25c0.8,-0.4 1.7,-0.6 2.7,-0.6c1.8,0 3.25,0.55 4.35,1.65c1.1,1.1 1.65,2.45 1.65,4.05c0,2.6 -1.1,4.5 -3.3,5.7c-5.3,3 -10.625,5.3 -15.975,6.9c-5.35,1.6 -11.425,2.4 -18.225,2.4Z" style="fill-rule:nonzero;"/><path d="M574.068,265.834c-12.7,0 -24.6,-2.4 -35.7,-7.2c-1.2,-0.5 -2.2,-1.325 -3,-2.475c-0.8,-1.15 -1.2,-2.375 -1.2,-3.675c0,-1.7 0.575,-3.175 1.725,-4.425c1.15,-1.25 2.625,-1.875 4.425,-1.875c1,0 1.95,0.2 2.85,0.6c9.2,4.1 19.05,6.15 29.55,6.15c17.5,0 26.25,-5.75 26.25,-17.25c0,-3 -1.125,-5.5 -3.375,-7.5c-2.25,-2 -5.025,-3.575 -8.325,-4.725c-3.3,-1.15 -8,-2.525 -14.1,-4.125c-8.1,-2.1 -14.65,-4.125 -19.65,-6.075c-5,-1.95 -9.3,-4.875 -12.9,-8.775c-3.6,-3.9 -5.4,-9.1 -5.4,-15.6c0,-5.7 1.5,-10.875 4.5,-15.525c3,-4.65 7.425,-8.35 13.275,-11.1c5.85,-2.75 12.875,-4.125 21.075,-4.125c11,0 20.95,1.65 29.85,4.95c2.8,1 4.2,3 4.2,6c0,1.6 -0.55,3.05 -1.65,4.35c-1.1,1.3 -2.55,1.95 -4.35,1.95c-0.6,0 -1.4,-0.2 -2.4,-0.6c-7.8,-2.7 -15.85,-4.05 -24.15,-4.05c-7.9,0 -14.325,1.5 -19.275,4.5c-4.95,3 -7.425,7.2 -7.425,12.6c0,3.6 1.175,6.525 3.525,8.775c2.35,2.25 5.3,4 8.85,5.25c3.55,1.25 8.375,2.575 14.475,3.975c7.9,1.9 14.275,3.8 19.125,5.7c4.85,1.9 9,4.85 12.45,8.85c3.45,4 5.175,9.4 5.175,16.2c0,5.6 -1.6,10.625 -4.8,15.075c-3.2,4.45 -7.7,7.925 -13.5,10.425c-5.8,2.5 -12.5,3.75 -20.1,3.75Z" style="fill-rule:nonzero;"/><path d="M679.818,265.834c-10.5,0 -19.7,-2.3 -27.6,-6.9c-7.9,-4.6 -14,-10.95 -18.3,-19.05c-4.3,-8.1 -6.55,-17.4 -6.75,-27.9c0.2,-10.5 2.45,-19.8 6.75,-27.9c4.3,-8.1 10.4,-14.45 18.3,-19.05c7.9,-4.6 17.1,-6.9 27.6,-6.9c10.5,0 19.675,2.3 27.525,6.9c7.85,4.6 13.95,10.975 18.3,19.125c4.35,8.15 6.625,17.425 6.825,27.825c-0.2,10.4 -2.475,19.675 -6.825,27.825c-4.35,8.15 -10.45,14.525 -18.3,19.125c-7.85,4.6 -17.025,6.9 -27.525,6.9Zm0,-12.75c8,0 14.95,-1.8 20.85,-5.4c5.9,-3.6 10.4,-8.5 13.5,-14.7c3.1,-6.2 4.65,-13.2 4.65,-21c0,-7.8 -1.55,-14.8 -4.65,-21c-3.1,-6.2 -7.6,-11.1 -13.5,-14.7c-5.9,-3.6 -12.85,-5.4 -20.85,-5.4c-8.1,0 -15.075,1.8 -20.925,5.4c-5.85,3.6 -10.325,8.5 -13.425,14.7c-3.1,6.2 -4.65,13.2 -4.65,21c0,7.8 1.55,14.8 4.65,21c3.1,6.2 7.575,11.1 13.425,14.7c5.85,3.6 12.825,5.4 20.925,5.4Z" style="fill-rule:nonzero;"/><path d="M762.018,265.084c-1.9,0 -3.5,-0.65 -4.8,-1.95c-1.3,-1.3 -1.95,-2.9 -1.95,-4.8l0,-91.8c0,-1.9 0.65,-3.525 1.95,-4.875c1.3,-1.35 2.9,-2.025 4.8,-2.025l58.35,0c1.8,0 3.325,0.625 4.575,1.875c1.25,1.25 1.875,2.775 1.875,4.575c0,1.8 -0.625,3.3 -1.875,4.5c-1.25,1.2 -2.775,1.8 -4.575,1.8l-51.45,0l0,33.15l46.2,0c1.8,0 3.325,0.625 4.575,1.875c1.25,1.25 1.875,2.775 1.875,4.575c0,1.8 -0.625,3.3 -1.875,4.5c-1.25,1.2 -2.775,1.8 -4.575,1.8l-46.2,0l0,40.05c0,1.9 -0.675,3.5 -2.025,4.8c-1.35,1.3 -2.975,1.95 -4.875,1.95Z" style="fill-rule:nonzero;"/><path d="M877.518,265.084c-1.9,0 -3.5,-0.65 -4.8,-1.95c-1.3,-1.3 -1.95,-2.9 -1.95,-4.8l0,-85.95l-30.6,0c-1.8,0 -3.3,-0.6 -4.5,-1.8c-1.2,-1.2 -1.8,-2.7 -1.8,-4.5c0,-1.8 0.6,-3.325 1.8,-4.575c1.2,-1.25 2.7,-1.875 4.5,-1.875l74.7,0c1.8,0 3.325,0.625 4.575,1.875c1.25,1.25 1.875,2.775 1.875,4.575c0,1.8 -0.625,3.3 -1.875,4.5c-1.25,1.2 -2.775,1.8 -4.575,1.8l-30.45,0l0,85.95c0,1.9 -0.675,3.5 -2.025,4.8c-1.35,1.3 -2.975,1.95 -4.875,1.95Z" style="fill-rule:nonzero;"/></g><g id="Zn"><path d="M74.766,250.089l0,-26.727l58.866,-65.228l0,28.478l-46.68,50.272l46.68,50.751l0,28.477l-58.866,-66.023Z" style="fill:url(#_Linear1);fill-rule:nonzero;"/><path d="M980.753,171.1l-58.866,66.023l-0,-28.477l46.62,-50.751l-46.62,-50.272l-0,-28.478l58.866,65.228l0,26.727Z" style="fill:url(#_Linear2);fill-rule:nonzero;"/></g><defs><linearGradient id="_Linear1" x1="0" y1="0" x2="1" y2="0" gradientUnits="userSpaceOnUse" gradientTransform="matrix(58.8663,0,0,157.978,74.7662,237.123)"><stop offset="0" style="stop-color:#3f48bc;stop-opacity:1"/><stop offset="1" style="stop-color:#9841c0;stop-opacity:1"/></linearGradient><linearGradient id="_Linear2" x1="0" y1="0" x2="1" y2="0" gradientUnits="userSpaceOnUse" gradientTransform="matrix(58.8663,0,0,157.978,921.887,158.134)"><stop offset="0" style="stop-color:#9841c0;stop-opacity:1"/><stop offset="1" style="stop-color:#3f48bc;stop-opacity:1"/></linearGradient></defs></svg>
